<svg xmlns="http://www.w3.org/2000/svg" viewBox="0 0 200 200">
  <circle cx="100" cy="100" r="100" fill="#3A7D5A"/>
  <!-- Shirt -->
  <path d="M18,200 C18,158 58,142 100,142 C142,142 182,158 182,200Z" fill="#2A6044"/>
  <!-- Neck -->
  <rect x="87" y="126" width="26" height="20" rx="4" fill="#C88050"/>
  <!-- Long hair behind head -->
  <path d="M53,86 C53,58 70,44 100,44 C130,44 147,58 147,86 L146,115 C144,138 138,158 128,168 C112,172 88,172 72,168 C62,158 56,138 54,115Z" fill="#180600"/>
  <!-- Head -->
  <ellipse cx="100" cy="98" rx="47" ry="50" fill="#C88050"/>
  <!-- Ears -->
  <path d="M53,90 C46,92 43,100 43,104 C43,108 46,114 53,114 C55,106 55,96 53,90Z" fill="#B07040"/>
  <path d="M147,90 C154,92 157,100 157,104 C157,108 154,114 147,114 C145,106 145,96 147,90Z" fill="#B07040"/>
  <!-- Hair top -->
  <ellipse cx="100" cy="54" rx="47" ry="12" fill="#180600"/>
  <rect x="53" y="54" width="94" height="26" fill="#180600"/>
  <!-- Eyebrows -->
  <path d="M74,84 C79,80 88,79 93,82" stroke="#180600" stroke-width="2.5" fill="none" stroke-linecap="round"/>
  <path d="M107,82 C112,79 121,80 126,84" stroke="#180600" stroke-width="2.5" fill="none" stroke-linecap="round"/>
  <!-- Eyes -->
  <ellipse cx="83" cy="93" rx="10" ry="9" fill="white"/>
  <ellipse cx="117" cy="93" rx="10" ry="9" fill="white"/>
  <circle cx="84" cy="93" r="6" fill="#180600"/>
  <circle cx="118" cy="93" r="6" fill="#180600"/>
  <circle cx="86" cy="91" r="2" fill="white"/>
  <circle cx="120" cy="91" r="2" fill="white"/>
  <!-- Nose -->
  <circle cx="96" cy="108" r="2.8" fill="#A06030"/>
  <circle cx="104" cy="108" r="2.8" fill="#A06030"/>
  <path d="M94,110 C97,114 103,114 106,110" stroke="#A06030" stroke-width="1.5" fill="none" stroke-linecap="round"/>
  <!-- Mouth -->
  <path d="M87,121 C93,127 107,127 113,121" stroke="#904028" stroke-width="2" fill="none" stroke-linecap="round"/>
  <!-- Small earring dots -->
  <circle cx="53" cy="106" r="2.5" fill="#FFD700"/>
  <circle cx="147" cy="106" r="2.5" fill="#FFD700"/>
</svg>
